<mxfile host="65bd71144e">
    <diagram id="B8vhl9K0eRNj4yXd_D31" name="Page-1">
        <mxGraphModel dx="1386" dy="779" grid="1" gridSize="10" guides="1" tooltips="1" connect="1" arrows="1" fold="1" page="1" pageScale="1" pageWidth="850" pageHeight="1100" math="0" shadow="0">
            <root>
                <mxCell id="0"/>
                <mxCell id="1" parent="0"/>
                <mxCell id="2" value="Employee" style="swimlane;whiteSpace=wrap;html=1;" vertex="1" parent="1">
                    <mxGeometry x="20" y="120" width="240" height="270" as="geometry"/>
                </mxCell>
                <mxCell id="3" value="Department" style="swimlane;whiteSpace=wrap;html=1;" vertex="1" parent="1">
                    <mxGeometry x="560" y="120" width="240" height="270" as="geometry"/>
                </mxCell>
            </root>
        </mxGraphModel>
    </diagram>
</mxfile>